<?xml version="1.0" encoding="UTF-8"?>
<svg id="uuid-936cab34-5223-47b4-8e0b-d9acf08c4fc3" data-name="Layer 1" xmlns="http://www.w3.org/2000/svg" width="650" height="650" viewBox="0 0 650 650">
  <path d="M207,645.64c180.58,2.28,351.5-145.95,401.5-313.99-79.14,151.14-249.52,253.6-401.5,313.99Z" style="fill: #022ea1;"/>
  <path d="M327.28,78.54l-86.21,360.76s54.73-18.95,86.21-34.11,67.64-42.44,67.64-42.44l-67.64-284.21Z" style="fill: #04b7fd;"/>
  <path d="M358.7,111.03s-9.41,8.77-7.47,9.45c40.23,9.44,93.74,14.1,130.46,39.54,161.58,137.12-220.85,305.32-329.99,316-50.29,7.99-128.03-17.75-64.48-71.98.97-.75,5.41-5.24,6.47-4.02-16.24,23.93-37.08,60.18,7.97,70.53,36.14,6.48,78.24-9.12,112.04-20.56-11.42-37,10.35-75.31,32.98-103.49l-1.5-1.5c-29.82,15.81-58.92,32.44-83.49,56.02-15.69,14.67-46.37,44.76-34,67.99-5.03,1.62-9.36-3.72-11.83-7.66-25.57-62.72,80.8-111.86,124.83-133.32-69.58,11.54-249.72,63.46-191.42,161.91,103.63,88.92,417.56-86.93,497.42-167.92l18-18.5c89.68-128.92-3.43-216.95-206-192.49Z" style="fill: #04b7fd;"/>
  <rect x="31.02" y="380.65" width="20" height="20" style="fill: #04b7fd;"/>
  <rect x="68.81" y="344.94" width="20" height="20" style="fill: #04b7fd;"/>
  <rect x="68.31" y="344.44" width="21" height="21" style="fill: #04b7fd;"/>
  <rect x="67.81" y="343.94" width="22" height="22" style="fill: #04b7fd;"/>
  <rect x="67.31" y="343.44" width="23" height="23" style="fill: #04b7fd;"/>
  <rect x="113.13" y="322.39" width="20" height="20" style="fill: #04b7fd;"/>
  <rect x="112.63" y="321.89" width="21" height="21" style="fill: #04b7fd;"/>
  <rect x="112.13" y="321.39" width="22" height="22" style="fill: #04b7fd;"/>
  <rect x="111.63" y="320.89" width="23" height="23" style="fill: #04b7fd;"/>
  <rect x="111.13" y="320.39" width="24" height="24" style="fill: #04b7fd;"/>
  <rect x="157.45" y="307.46" width="20" height="20" style="fill: #04b7fd;"/>
  <rect x="197.21" y="303.15" width="15" height="15" style="fill: #04b7fd;"/>
  <path d="M503.99,216.65h0c-20.35-60.93-103.53-76.34-157-91.01-2.48-.62.54,4.2-.1,4.95-13.65,1.45,18.56,7.39,21.1,8.56,124.41,33.83,101.91,125.13,31,204-1.27,1.86,33.99-20.5,33.99-20.5l-17.99,23.51c31.55-14.83,69.07-49.39,84.31-81.88,4.72-8.87,8.51-32.53,4.68-47.63Z" style="fill: #022ea1;"/>
  <path d="M492.99,386.65c-76.43,50.56-412.39,233.24-455.99,93,.56,38.86,25.91,86.86,63.98,100.01-.28,2.09-5.12.03-6.2-.31-17.93-4.84-33.8-19.03-45.79-32.7,76.56,172.29,276.56,28.68,375.99-45.01,80.88-62.25,184.21-146.55,191.02-254.99-18.89,61.97-73.17,103.43-123.01,139.99ZM342.18,489.04c.31-.15.57-.27.77-.37-.2.1-.46.22-.77.37ZM358.46,481.2c.21-.1.47-.22.78-.37-.31.15-.57.27-.78.37ZM398.54,461.87c.18-.09.32-.15.39-.19-.07.03-.2.1-.39.19ZM399.28,466c.57.68,1.33,1.3,2.07,1.91.3.22.62.42.95.6-1.19-.63-2.28-1.5-3.02-2.51ZM422.77,492.66c.08,0,.12,0,.16.03-.03-.02-.08-.03-.16-.03ZM425.99,482.63s-.07.06-.11.09c.09-.07.15-.14.22-.21-.04.04-.06.08-.1.12ZM426.24,481.24c.18.17.27.36.23.6.03-.23-.06-.43-.23-.6ZM426.95,472.27s-.03.03-.04.05c.07-.12.07-.24,0-.36.07.09.09.19.04.31ZM497.5,393.67c-.34.33-.7.68-1.09,1.01.39-.33.75-.68,1.09-1.01h0Z" style="fill: #022ea1;"/>
  <polygon points="353.06 89.51 340.66 109.54 399.81 115.26 340.66 120.05 352.11 139.11 332.52 128.6 327.32 188.72 322.53 127.68 302.51 140.07 314.9 120.05 254.81 114.33 314.9 109.54 302.51 89.51 322.53 101.91 327.32 41.82 332.52 100.99 353.06 89.51" style="fill: #fff; stroke: #04b7fd; stroke-linecap: round; stroke-miterlimit: 16; stroke-width: 6px;"/>
</svg>