<?xml version="1.0" encoding="UTF-8"?>
<svg id="uuid-74cf48fe-1401-4fdf-9781-e666dad273f8" data-name="uuid-936cab34-5223-47b4-8e0b-d9acf08c4fc3" xmlns="http://www.w3.org/2000/svg" width="650" height="650" xmlns:xlink="http://www.w3.org/1999/xlink" viewBox="0 0 650 650">
  <defs>
    <linearGradient id="uuid-a6a588d1-08d7-4db1-ad74-c9dc60d7e947" x1="55.53" y1="364.45" x2="633.53" y2="34.45" gradientTransform="translate(0 652) scale(1 -1)" gradientUnits="userSpaceOnUse">
      <stop offset="0" stop-color="#00103f"/>
      <stop offset=".4" stop-color="#032a8f"/>
      <stop offset=".7" stop-color="#0a54d0"/>
      <stop offset="1" stop-color="#001a5e"/>
    </linearGradient>
    <filter id="uuid-9845d8be-9534-45ec-81da-bf02345d63a8" data-name="glowBig" x="-80%" y="-80%" width="260%" height="260%">
      <feGaussianBlur result="b" stdDeviation="9"/>
      <feMerge>
        <feMergeNode in="b"/>
        <feMergeNode in="SourceGraphic"/>
      </feMerge>
    </filter>
    <linearGradient id="uuid-5b73b4bf-6eb2-43c6-8a43-869ba78f412d" x1="342" y1="572.88" x2="315" y2="210.88" gradientTransform="translate(0 652) scale(1 -1)" gradientUnits="userSpaceOnUse">
      <stop offset="0" stop-color="#eafaff"/>
      <stop offset=".14" stop-color="#6df"/>
      <stop offset=".42" stop-color="#04b7fd"/>
      <stop offset=".74" stop-color="#0a5fd0"/>
      <stop offset="1" stop-color="#022a86"/>
    </linearGradient>
    <linearGradient id="uuid-8fe13d89-19df-4cfd-842c-a9f1913dc3bb" x1="101.96" y1="482.5" x2="601.96" y2="122.5" gradientTransform="translate(0 652) scale(1 -1)" gradientUnits="userSpaceOnUse">
      <stop offset="0" stop-color="#0a3ea8"/>
      <stop offset=".28" stop-color="#04b7fd"/>
      <stop offset=".5" stop-color="#a6efff"/>
      <stop offset=".72" stop-color="#04b7fd"/>
      <stop offset="1" stop-color="#073b9e"/>
    </linearGradient>
    <filter id="uuid-2502f76a-86dd-4638-b9be-f1c9d52f5a15" data-name="glow" x="-60%" y="-60%" width="220%" height="220%">
      <feGaussianBlur result="b" stdDeviation="5"/>
      <feMerge>
        <feMergeNode in="b"/>
        <feMergeNode in="SourceGraphic"/>
      </feMerge>
    </filter>
    <linearGradient id="uuid-a1c76635-a512-4f21-abd2-9601f2a94627" x1="-602.3" y1="1254.3" x2="-601.3" y2="1253.3" gradientTransform="translate(12077.02 25466.65) scale(20 -20)" gradientUnits="userSpaceOnUse">
      <stop offset="0" stop-color="#8aeaff"/>
      <stop offset="1" stop-color="#0568d6"/>
    </linearGradient>
    <linearGradient id="uuid-1bd67f7b-e3ef-4d4e-aa85-ac23df041580" x1="-606.43" y1="1258.43" x2="-605.43" y2="1257.43" gradientTransform="translate(14015.31 29287.44) scale(23 -23)" gradientUnits="userSpaceOnUse">
      <stop offset="0" stop-color="#8aeaff"/>
      <stop offset="1" stop-color="#0568d6"/>
    </linearGradient>
    <linearGradient id="uuid-ba7c70a9-f83c-4c9e-8148-3da5554327c4" x1="-607.58" y1="1259.58" x2="-606.58" y2="1258.58" gradientTransform="translate(14693.13 30550.39) scale(24 -24)" gradientUnits="userSpaceOnUse">
      <stop offset="0" stop-color="#8aeaff"/>
      <stop offset="1" stop-color="#0568d6"/>
    </linearGradient>
    <linearGradient id="uuid-29581a54-37d2-4f48-b696-e699e6536a8c" x1="-602.3" y1="1254.3" x2="-601.3" y2="1253.3" gradientTransform="translate(12203.45 25393.46) scale(20 -20)" gradientUnits="userSpaceOnUse">
      <stop offset="0" stop-color="#8aeaff"/>
      <stop offset="1" stop-color="#0568d6"/>
    </linearGradient>
    <linearGradient id="uuid-18aeee91-3e3f-4e68-af80-af2f22c384d0" x1="-591.73" y1="1243.73" x2="-590.73" y2="1242.73" gradientTransform="translate(9073.21 18959.15) scale(15 -15)" gradientUnits="userSpaceOnUse">
      <stop offset="0" stop-color="#8aeaff"/>
      <stop offset="1" stop-color="#0568d6"/>
    </linearGradient>
    <linearGradient id="uuid-dc56224a-328a-442b-94f1-ecea642eece0" x1="161.81" y1="550.61" x2="739.81" y2="220.61" gradientTransform="translate(0 652) scale(1 -1)" gradientUnits="userSpaceOnUse">
      <stop offset="0" stop-color="#00103f"/>
      <stop offset=".4" stop-color="#032a8f"/>
      <stop offset=".7" stop-color="#0a54d0"/>
      <stop offset="1" stop-color="#001a5e"/>
    </linearGradient>
    <linearGradient id="uuid-38c4fcba-19bb-408c-b1be-8b7f00f8f584" x1="69.11" y1="388.24" x2="647.11" y2="58.24" gradientTransform="translate(0 652) scale(1 -1)" gradientUnits="userSpaceOnUse">
      <stop offset="0" stop-color="#00103f"/>
      <stop offset=".4" stop-color="#032a8f"/>
      <stop offset=".7" stop-color="#0a54d0"/>
      <stop offset="1" stop-color="#001a5e"/>
    </linearGradient>
    <filter id="uuid-ccbe6e90-3b47-4781-8088-cdac55333005" data-name="glow" x="-60%" y="-60%" width="220%" height="220%">
      <feGaussianBlur result="b" stdDeviation="5"/>
      <feMerge>
        <feMergeNode in="b"/>
        <feMergeNode in="SourceGraphic"/>
      </feMerge>
    </filter>
    <filter id="uuid-cc8ec0c1-08b2-4666-aacd-5461762001e3" data-name="glow" x="-60%" y="-60%" width="220%" height="220%">
      <feGaussianBlur result="b" stdDeviation="5"/>
      <feMerge>
        <feMergeNode in="b"/>
        <feMergeNode in="SourceGraphic"/>
      </feMerge>
    </filter>
  </defs>
  <path d="M207,645.64c180.58,2.28,351.5-145.95,401.5-313.99-79.14,151.14-249.52,253.6-401.5,313.99Z" style="fill: url(#uuid-a6a588d1-08d7-4db1-ad74-c9dc60d7e947);"/>
  <g style="filter: url(#uuid-9845d8be-9534-45ec-81da-bf02345d63a8); isolation: isolate; opacity: .45;">
    <path d="M327.28,78.54l-86.21,360.76s54.73-18.95,86.21-34.11,67.64-42.44,67.64-42.44l-67.64-284.21h0Z" style="fill: #04b7fd;"/>
  </g>
  <path d="M327.28,78.54l-86.21,360.76s54.73-18.95,86.21-34.11,67.64-42.44,67.64-42.44l-67.64-284.21h0Z" style="fill: url(#uuid-5b73b4bf-6eb2-43c6-8a43-869ba78f412d);"/>
  <path d="M358.7,111.03s-9.41,8.77-7.47,9.45c40.23,9.44,93.74,14.1,130.46,39.54,161.58,137.12-220.85,305.32-329.99,316-50.29,7.99-128.03-17.75-64.48-71.98.97-.75,5.41-5.24,6.47-4.02-16.24,23.93-37.08,60.18,7.97,70.53,36.14,6.48,78.24-9.12,112.04-20.56-11.42-37,10.35-75.31,32.98-103.49l-1.5-1.5c-29.82,15.81-58.92,32.44-83.49,56.02-15.69,14.67-46.37,44.76-34,67.99-5.03,1.62-9.36-3.72-11.83-7.66-25.57-62.72,80.8-111.86,124.83-133.32-69.58,11.54-249.72,63.46-191.42,161.91,103.63,88.92,417.56-86.93,497.42-167.92l18-18.5c89.68-128.92-3.43-216.95-206-192.49h.01Z" style="fill: url(#uuid-8fe13d89-19df-4cfd-842c-a9f1913dc3bb);"/>
  <g style="filter: url(#uuid-2502f76a-86dd-4638-b9be-f1c9d52f5a15);">
    <rect x="31.02" y="380.65" width="20" height="20" style="fill: url(#uuid-a1c76635-a512-4f21-abd2-9601f2a94627);"/>
    <rect x="67.31" y="343.44" width="23" height="23" style="fill: url(#uuid-1bd67f7b-e3ef-4d4e-aa85-ac23df041580);"/>
    <rect x="111.13" y="320.39" width="24" height="24" style="fill: url(#uuid-ba7c70a9-f83c-4c9e-8148-3da5554327c4);"/>
    <rect x="157.45" y="307.46" width="20" height="20" style="fill: url(#uuid-29581a54-37d2-4f48-b696-e699e6536a8c); isolation: isolate; opacity: .85;"/>
    <rect x="197.21" y="303.15" width="15" height="15" style="fill: url(#uuid-18aeee91-3e3f-4e68-af80-af2f22c384d0); isolation: isolate; opacity: .7;"/>
  </g>
  <path d="M503.99,216.65h0c-20.35-60.93-103.53-76.34-157-91.01-2.48-.62.54,4.2-.1,4.95-13.65,1.45,18.56,7.39,21.1,8.56,124.41,33.83,101.91,125.13,31,204-1.27,1.86,33.99-20.5,33.99-20.5l-17.99,23.51c31.55-14.83,69.07-49.39,84.31-81.88,4.72-8.87,8.51-32.53,4.68-47.63h.01Z" style="fill: url(#uuid-dc56224a-328a-442b-94f1-ecea642eece0);"/>
  <path d="M492.99,386.65c-76.43,50.56-412.39,233.24-455.99,93,.56,38.86,25.91,86.86,63.98,100.01-.28,2.09-5.12.03-6.2-.31-17.93-4.84-33.8-19.03-45.79-32.7,76.56,172.29,276.56,28.68,375.99-45.01,80.88-62.25,184.21-146.55,191.02-254.99-18.89,61.97-73.17,103.43-123.01,139.99h0ZM342.18,489.04c.31-.15.57-.27.77-.37-.2.1-.46.22-.77.37ZM358.46,481.2c.21-.1.47-.22.78-.37-.31.15-.57.27-.78.37ZM398.54,461.87c.18-.09.32-.15.39-.19-.07.03-.2.1-.39.19ZM399.28,466c.57.68,1.33,1.3,2.07,1.91.3.22.62.42.95.6-1.19-.63-2.28-1.5-3.02-2.51h0ZM422.77,492.66c.08,0,.12,0,.16.03-.03-.02-.08-.03-.16-.03ZM425.99,482.63s-.07.06-.11.09c.09-.07.15-.14.22-.21-.04.04-.06.08-.1.12h-.01ZM426.24,481.24c.18.17.27.36.23.6.03-.23-.06-.43-.23-.6ZM426.95,472.27s-.03.03-.04.05c.07-.12.07-.24,0-.36.07.09.09.19.04.31ZM497.5,393.67c-.34.33-.7.68-1.09,1.01.39-.33.75-.68,1.09-1.01h0Z" style="fill: url(#uuid-38c4fcba-19bb-408c-b1be-8b7f00f8f584);"/>
  <g style="filter: url(#uuid-ccbe6e90-3b47-4781-8088-cdac55333005);">
    <path d="M152.5,556h7c1.38,0,2.5,1.12,2.5,2.5h0c0,1.38-1.12,2.5-2.5,2.5h-7c-1.38,0-2.5-1.12-2.5-2.5h0c0-1.38,1.12-2.5,2.5-2.5Z" style="fill: #7fe6ff; isolation: isolate; opacity: .9;"/>
    <path d="M178.5,548h7c1.38,0,2.5,1.12,2.5,2.5h0c0,1.38-1.12,2.5-2.5,2.5h-7c-1.38,0-2.5-1.12-2.5-2.5h0c0-1.38,1.12-2.5,2.5-2.5Z" style="fill: #7fe6ff; isolation: isolate; opacity: .9;"/>
    <path d="M204.5,545h7c1.38,0,2.5,1.12,2.5,2.5h0c0,1.38-1.12,2.5-2.5,2.5h-7c-1.38,0-2.5-1.12-2.5-2.5h0c0-1.38,1.12-2.5,2.5-2.5Z" style="fill: #7fe6ff; isolation: isolate; opacity: .9;"/>
    <path d="M230.5,548h7c1.38,0,2.5,1.12,2.5,2.5h0c0,1.38-1.12,2.5-2.5,2.5h-7c-1.38,0-2.5-1.12-2.5-2.5h0c0-1.38,1.12-2.5,2.5-2.5Z" style="fill: #7fe6ff; isolation: isolate; opacity: .9;"/>
    <path d="M256.5,556h7c1.38,0,2.5,1.12,2.5,2.5h0c0,1.38-1.12,2.5-2.5,2.5h-7c-1.38,0-2.5-1.12-2.5-2.5h0c0-1.38,1.12-2.5,2.5-2.5Z" style="fill: #7fe6ff; isolation: isolate; opacity: .85;"/>
    <path d="M194.5,572h5c1.38,0,2.5,1.12,2.5,2.5h0c0,1.38-1.12,2.5-2.5,2.5h-5c-1.38,0-2.5-1.12-2.5-2.5h0c0-1.38,1.12-2.5,2.5-2.5Z" style="fill: #7fe6ff; isolation: isolate; opacity: .8;"/>
  </g>
  <g style="filter: url(#uuid-cc8ec0c1-08b2-4666-aacd-5461762001e3);">
    <polygon points="353.06 89.51 340.66 109.54 399.81 115.26 340.66 120.05 352.11 139.11 332.52 128.6 327.32 188.72 322.53 127.68 302.51 140.07 314.9 120.05 254.81 114.33 314.9 109.54 302.51 89.51 322.53 101.91 327.32 41.82 332.52 100.99 353.06 89.51" style="fill: #fff;"/>
    <polygon points="353.06 89.51 340.66 109.54 399.81 115.26 340.66 120.05 352.11 139.11 332.52 128.6 327.32 188.72 322.53 127.68 302.51 140.07 314.9 120.05 254.81 114.33 314.9 109.54 302.51 89.51 322.53 101.91 327.32 41.82 332.52 100.99 353.06 89.51" style="fill: none; stroke: #04b7fd; stroke-linecap: round; stroke-miterlimit: 16; stroke-width: 6px;"/>
  </g>
</svg>